<mxfile host="app.diagrams.net" modified="2023-09-08T00:51:01.094Z" agent="Mozilla/5.0 (Windows NT 10.0; Win64; x64) AppleWebKit/537.36 (KHTML, like Gecko) Chrome/116.0.0.0 Safari/537.36 Edg/116.0.1938.69" etag="kmAo_p0ngS6OmwqEggGy" version="21.7.2" type="device">
  <diagram name="페이지-1" id="4vh-IgWuv-Z64Z92omlh">
    <mxGraphModel dx="1155" dy="633" grid="1" gridSize="10" guides="1" tooltips="1" connect="1" arrows="1" fold="1" page="1" pageScale="1" pageWidth="827" pageHeight="1169" math="0" shadow="0">
      <root>
        <mxCell id="0" />
        <mxCell id="1" parent="0" />
        <mxCell id="coUzNTEBsHnzjCGRg5Nh-1" value="사용자" style="shape=umlActor;verticalLabelPosition=bottom;verticalAlign=top;html=1;" vertex="1" parent="1">
          <mxGeometry x="60" y="340" width="30" height="60" as="geometry" />
        </mxCell>
        <mxCell id="coUzNTEBsHnzjCGRg5Nh-3" value="역경매&lt;br&gt;게시판" style="shape=umlFrame;whiteSpace=wrap;html=1;pointerEvents=0;" vertex="1" parent="1">
          <mxGeometry x="120" y="160" width="460" height="450" as="geometry" />
        </mxCell>
        <mxCell id="coUzNTEBsHnzjCGRg5Nh-4" value="경매 도서 확인" style="ellipse;whiteSpace=wrap;html=1;" vertex="1" parent="1">
          <mxGeometry x="160" y="200" width="140" height="70" as="geometry" />
        </mxCell>
        <mxCell id="coUzNTEBsHnzjCGRg5Nh-5" value="로그인" style="ellipse;whiteSpace=wrap;html=1;" vertex="1" parent="1">
          <mxGeometry x="160" y="280" width="140" height="70" as="geometry" />
        </mxCell>
        <mxCell id="coUzNTEBsHnzjCGRg5Nh-6" value="경매 도서 확인" style="ellipse;whiteSpace=wrap;html=1;" vertex="1" parent="1">
          <mxGeometry x="160" y="360" width="140" height="70" as="geometry" />
        </mxCell>
        <mxCell id="coUzNTEBsHnzjCGRg5Nh-7" value="소셜 로그인" style="ellipse;whiteSpace=wrap;html=1;" vertex="1" parent="1">
          <mxGeometry x="320" y="320" width="140" height="70" as="geometry" />
        </mxCell>
        <mxCell id="coUzNTEBsHnzjCGRg5Nh-10" style="rounded=0;orthogonalLoop=1;jettySize=auto;html=1;entryX=1;entryY=0.5;entryDx=0;entryDy=0;endArrow=block;endFill=1;" edge="1" parent="1" source="coUzNTEBsHnzjCGRg5Nh-8" target="coUzNTEBsHnzjCGRg5Nh-5">
          <mxGeometry relative="1" as="geometry" />
        </mxCell>
        <mxCell id="coUzNTEBsHnzjCGRg5Nh-8" value="ID, PWD 로그인" style="ellipse;whiteSpace=wrap;html=1;" vertex="1" parent="1">
          <mxGeometry x="320" y="240" width="140" height="70" as="geometry" />
        </mxCell>
      </root>
    </mxGraphModel>
  </diagram>
</mxfile>
